Source : NGB(Thanks)
 
http://www.imdb.com/title/tt2646378/


Format                                   : AVI
Format/Info                              : Audio Video Interleave
File size                                : 700 MiB
Duration                                 : 1h 26mn
Overall bit rate                         : 1 126 Kbps
Writing library                          : VirtualDub build 32842/release

Video
ID                                       : 0
Format                                   : MPEG-4 Visual
Format profile                           : Advanced Simple@L5
Format settings, BVOP                    : 4
Format settings, QPel                    : No
Format settings, GMC                     : No warppoints
Format settings, Matrix                  : Default (H.263)
Muxing mode                              : Packed bitstream
Codec ID                                 : XVID
Codec ID/Hint                            : XviD
Duration                                 : 1h 26mn
Bit rate                                 : 989 Kbps
Width                                    : 640 pixels
Height                                   : 352 pixels
Display aspect ratio                     : 16:9
Frame rate                               : 23.976 fps
Color space                              : YUV
Chroma subsampling                       : 4:2:0
Bit depth                                : 8 bits
Scan type                                : Progressive
Compression mode                         : Lossy
Bits/(Pixel*Frame)                       : 0.183
Stream size                              : 614 MiB (88%)
Writing library                          : XviD 64

Audio
ID                                       : 1
Format                                   : MPEG Audio
Format version                           : Version 1
Format profile                           : Layer 3
Codec ID                                 : 55
Codec ID/Hint                            : MP3
Duration                                 : 1h 26mn
Bit rate mode                            : Constant
Bit rate                                 : 128 Kbps
Channel(s)                               : 2 channels
Sampling rate                            : 44.1 KHz
Compression mode                         : Lossy
Stream size                              : 79.5 MiB (11%)
Alignment                                : Split accross interleaves
Interleave, duration                     : 42 ms (1.00 video frame)
Interleave, preload duration             : 500 ms
Writing library                          : LAME3.99r
Encoding settings                        : -m s -V 4 -q 3 -lowpass 17 -b 128

 
http://www.shotpix.com/images/56411321030013736359.png 
http://www.shotpix.com/images/39803938375989693323.png 
http://www.shotpix.com/images/11777685911189771030.png